/* XPM */
static char * player2_xpm[] = {
"64 64 446 2",
"  	c None",
". 	c #92603B",
"+ 	c #956E2A",
"@ 	c #A37538",
"# 	c #7B3930",
"$ 	c #956730",
"% 	c #6E3935",
"& 	c #945333",
"* 	c #B37825",
"= 	c #AD6524",
"- 	c #914A2F",
"; 	c #6C2F37",
"> 	c #573113",
", 	c #995432",
"' 	c #854732",
") 	c #A05C25",
"! 	c #BA7C24",
"~ 	c #9A542C",
"{ 	c #813C34",
"] 	c #7B3835",
"^ 	c #5F2638",
"/ 	c #4A2624",
"( 	c #562E1C",
"_ 	c #A37A3B",
": 	c #A08234",
"< 	c #884F30",
"[ 	c #924E2B",
"} 	c #955229",
"| 	c #AB6C29",
"1 	c #7F4336",
"2 	c #572434",
"3 	c #662C36",
"4 	c #482425",
"5 	c #573018",
"6 	c #763535",
"7 	c #85492D",
"8 	c #55272F",
"9 	c #682D3A",
"0 	c #834723",
"a 	c #8B4434",
"b 	c #9C542A",
"c 	c #773735",
"d 	c #78343C",
"e 	c #642B34",
"f 	c #6A2F34",
"g 	c #442423",
"h 	c #80422C",
"i 	c #97602A",
"j 	c #AC7324",
"k 	c #723829",
"l 	c #6C3431",
"m 	c #6F3727",
"n 	c #7B353C",
"o 	c #7A3340",
"p 	c #A36430",
"q 	c #763E31",
"r 	c #5B2635",
"s 	c #8B4437",
"t 	c #542333",
"u 	c #462424",
"v 	c #543416",
"w 	c #4C242B",
"x 	c #5E2836",
"y 	c #6A3233",
"z 	c #8F533D",
"A 	c #954E2F",
"B 	c #B07E2E",
"C 	c #9D6033",
"D 	c #9D6730",
"E 	c #924E28",
"F 	c #9C5724",
"G 	c #A05924",
"H 	c #9F5729",
"I 	c #934C33",
"J 	c #89453B",
"K 	c #6D3237",
"L 	c #7F3B34",
"M 	c #773240",
"N 	c #934D33",
"O 	c #672C38",
"P 	c #3B2419",
"Q 	c #362414",
"R 	c #602739",
"S 	c #77333F",
"T 	c #844D2D",
"U 	c #63283A",
"V 	c #5F2B34",
"W 	c #66342E",
"X 	c #3E231E",
"Y 	c #6B322D",
"Z 	c #79333E",
"` 	c #84433B",
" .	c #955C36",
"..	c #63273C",
"+.	c #74372E",
"@.	c #6A2E37",
"#.	c #75313F",
"$.	c #975033",
"%.	c #5F263A",
"&.	c #4C2626",
"*.	c #6A372E",
"=.	c #562D21",
"-.	c #552A27",
";.	c #3E2420",
">.	c #813B38",
",.	c #A6692E",
"'.	c #6E2B40",
").	c #934D34",
"!.	c #986037",
"~.	c #59292F",
"{.	c #723530",
"].	c #945035",
"^.	c #874432",
"/.	c #924A2A",
"(.	c #804233",
"_.	c #40241D",
":.	c #562334",
"<.	c #A66A29",
"[.	c #793A31",
"}.	c #7F3A37",
"|.	c #8B4833",
"1.	c #5E2B2F",
"2.	c #613C15",
"3.	c #6B2F37",
"4.	c #814637",
"5.	c #9B5524",
"6.	c #9C552A",
"7.	c #A96B28",
"8.	c #834533",
"9.	c #4B2429",
"0.	c #5B2831",
"a.	c #5B2535",
"b.	c #934F31",
"c.	c #723636",
"d.	c #6A2C38",
"e.	c #9E5A30",
"f.	c #6A2A3E",
"g.	c #5D2C2D",
"h.	c #6C401E",
"i.	c #74313D",
"j.	c #A4682F",
"k.	c #965130",
"l.	c #924B2F",
"m.	c #98522D",
"n.	c #C69E33",
"o.	c #71303A",
"p.	c #51242D",
"q.	c #623221",
"r.	c #642A38",
"s.	c #62253E",
"t.	c #7D393B",
"u.	c #42241F",
"v.	c #5E243B",
"w.	c #7F373D",
"x.	c #9F602C",
"y.	c #73313C",
"z.	c #653129",
"A.	c #592437",
"B.	c #773C33",
"C.	c #AF853B",
"D.	c #965D2F",
"E.	c #854233",
"F.	c #8C4634",
"G.	c #9E6834",
"H.	c #B88B3A",
"I.	c #692B3C",
"J.	c #4B232A",
"K.	c #603A19",
"L.	c #703633",
"M.	c #5F2537",
"N.	c #9B5B2F",
"O.	c #552532",
"P.	c #5B2437",
"Q.	c #672443",
"R.	c #813C3D",
"S.	c #A06530",
"T.	c #612837",
"U.	c #62322A",
"V.	c #382416",
"W.	c #672C39",
"X.	c #996538",
"Y.	c #C49734",
"Z.	c #9B6131",
"`.	c #8B4534",
" +	c #954F34",
".+	c #B8943E",
"++	c #9E652B",
"@+	c #6D2D3C",
"#+	c #56292D",
"$+	c #492527",
"%+	c #422520",
"&+	c #652D35",
"*+	c #A17234",
"=+	c #B0883E",
"-+	c #62263A",
";+	c #813A3A",
">+	c #813A39",
",+	c #A5702E",
"'+	c #814831",
")+	c #5A2731",
"!+	c #622B32",
"~+	c #472721",
"{+	c #753A32",
"]+	c #B1883A",
"^+	c #C5A241",
"/+	c #A36D32",
"(+	c #965133",
"_+	c #A76B26",
":+	c #BE9032",
"<+	c #915536",
"[+	c #5A2437",
"}+	c #482428",
"|+	c #5F2639",
"1+	c #A16B33",
"2+	c #BC9133",
"3+	c #75303F",
"4+	c #863E35",
"5+	c #A36A2D",
"6+	c #875F2F",
"7+	c #60243C",
"8+	c #5F2A33",
"9+	c #472422",
"0+	c #492C24",
"a+	c #492F24",
"b+	c #692E34",
"c+	c #7A403B",
"d+	c #AC742E",
"e+	c #8A453D",
"f+	c #954F33",
"g+	c #954F32",
"h+	c #A1763D",
"i+	c #9B692E",
"j+	c #672A3A",
"k+	c #622C32",
"l+	c #472C22",
"m+	c #5A3924",
"n+	c #543C24",
"o+	c #4E3B2A",
"p+	c #462422",
"q+	c #5E2933",
"r+	c #A06031",
"s+	c #793141",
"t+	c #843D37",
"u+	c #96522A",
"v+	c #92643C",
"w+	c #5E2735",
"x+	c #50242E",
"y+	c #3D241C",
"z+	c #442F20",
"A+	c #4D4829",
"B+	c #4D4029",
"C+	c #51432D",
"D+	c #53272D",
"E+	c #73323A",
"F+	c #B0903E",
"G+	c #A4682D",
"H+	c #904A35",
"I+	c #8E4938",
"J+	c #8D4B39",
"K+	c #90603B",
"L+	c #5C2635",
"M+	c #241420",
"N+	c #3B211E",
"O+	c #443620",
"P+	c #524A2F",
"Q+	c #50432C",
"R+	c #592534",
"S+	c #884730",
"T+	c #75313E",
"U+	c #702847",
"V+	c #7D363E",
"W+	c #783144",
"X+	c #7C432F",
"Y+	c #5A2534",
"Z+	c #5F2D2D",
"`+	c #11121C",
" @	c #392319",
".@	c #472D23",
"+@	c #534730",
"@@	c #4D3D29",
"#@	c #5E2F28",
"$@	c #8D4D33",
"%@	c #AA7739",
"&@	c #8F4832",
"*@	c #8A4230",
"=@	c #924C36",
"-@	c #854634",
";@	c #702E3C",
">@	c #4E242D",
",@	c #1F141E",
"'@	c #391F1F",
")@	c #41381E",
"!@	c #564E33",
"~@	c #4E3F29",
"{@	c #61253E",
"]@	c #9A5329",
"^@	c #7B3340",
"/@	c #7B3540",
"(@	c #773D31",
"_@	c #63243F",
":@	c #492429",
"<@	c #3C2419",
"[@	c #452C21",
"}@	c #534B31",
"|@	c #575334",
"1@	c #4E452A",
"2@	c #522531",
"3@	c #B27A2E",
"4@	c #9A5225",
"5@	c #924B2D",
"6@	c #8D4737",
"7@	c #7C3D32",
"8@	c #4C2A1C",
"9@	c #493021",
"0@	c #433C20",
"a@	c #4F472B",
"b@	c #A76D29",
"c@	c #8A4332",
"d@	c #823B39",
"e@	c #722A46",
"f@	c #7A3E33",
"g@	c #582435",
"h@	c #402716",
"i@	c #402D1D",
"j@	c #50482C",
"k@	c #50462C",
"l@	c #995125",
"m@	c #8D4530",
"n@	c #843D38",
"o@	c #7B3440",
"p@	c #915030",
"q@	c #61243D",
"r@	c #422914",
"s@	c #473122",
"t@	c #955A2F",
"u@	c #B07B35",
"v@	c #97502E",
"w@	c #712E3F",
"x@	c #79353A",
"y@	c #4D2429",
"z@	c #30240C",
"A@	c #612C30",
"B@	c #98512F",
"C@	c #8E4734",
"D@	c #854142",
"E@	c #612A33",
"F@	c #4D2B1A",
"G@	c #9C6525",
"H@	c #965433",
"I@	c #762F43",
"J@	c #6E2549",
"K@	c #753D29",
"L@	c #31240F",
"M@	c #68371C",
"N@	c #964F30",
"O@	c #853E38",
"P@	c #752E43",
"Q@	c #652B36",
"R@	c #4A291C",
"S@	c #AC6F28",
"T@	c #964F2F",
"U@	c #712A45",
"V@	c #6D3532",
"W@	c #884138",
"X@	c #7C353F",
"Y@	c #72303A",
"Z@	c #42241E",
"`@	c #432422",
" #	c #98542A",
".#	c #7E373C",
"+#	c #632440",
"@#	c #262402",
"##	c #8E4D2D",
"$#	c #904931",
"%#	c #71352F",
"&#	c #4C2428",
"*#	c #3C241E",
"=#	c #6E372C",
"-#	c #623621",
";#	c #572B24",
">#	c #3F241C",
",#	c #944C2E",
"'#	c #7B3F26",
")#	c #632A36",
"!#	c #422420",
"~#	c #A0582B",
"{#	c #84432E",
"]#	c #66302C",
"^#	c #3E2617",
"/#	c #864530",
"(#	c #4F2922",
"_#	c #432423",
":#	c #6B3B24",
"<#	c #884430",
"[#	c #5D2B2D",
"}#	c #30240E",
"|#	c #763E33",
"1#	c #4E252A",
"2#	c #342411",
"3#	c #683326",
"4#	c #502C1A",
"5#	c #4B2C1D",
"6#	c #4D2A20",
"7#	c #392417",
"8#	c #46281D",
"9#	c #502D16",
"0#	c #894530",
"a#	c #56292C",
"b#	c #5D2C2B",
"c#	c #3E241F",
"d#	c #945131",
"e#	c #763437",
"f#	c #41241E",
"g#	c #3D241E",
"h#	c #412321",
"i#	c #3E241B",
"j#	c #65302D",
"k#	c #452424",
"l#	c #412424",
"m#	c #8E482F",
"n#	c #874332",
"o#	c #572A2C",
"p#	c #94502C",
"q#	c #67302F",
"r#	c #39241A",
"s#	c #3A231E",
"t#	c #95532A",
"u#	c #723433",
"v#	c #56292B",
"w#	c #944F2D",
"x#	c #64302C",
"y#	c #79471E",
"z#	c #60331B",
"A#	c #3E2321",
"B#	c #924E2A",
"C#	c #7F3D31",
"D#	c #452327",
"E#	c #53282C",
"F#	c #944E34",
"G#	c #6E3330",
"H#	c #49232A",
"I#	c #9C562D",
"J#	c #482426",
"K#	c #70362A",
"L#	c #582C27",
"M#	c #402422",
"                                                                                                                                ",
"                                                                                                                                ",
"                                                                                                                                ",
"                                                                                                                                ",
"                                                                                                                                ",
"                                                            .                                                                   ",
"                                                          + @ # $ %                                                             ",
"                                                          & * = - ;                                                             ",
"                                                    > , ' ) ! ~ { ] ^ / (                                                       ",
"                                                      _ : < [ } | 1 2 3 4 5                                                     ",
"                                                    6 7 8 9 0 a b c d e f g                                                     ",
"                                                h i j k l m n o p q r s t u v                                                   ",
"                                      w x y z A B C D E F G H I J K L M N O P                                                   ",
"                                      Q R S T U V W   X Y Z `  ...+.@.#.$.%.&.                                                  ",
"                                                          *.=.-.;.>.,.'.).!.~.                                                  ",
"                                                                  {.].^./.(._.                                                  ",
"                                                                  :.<.[.}.|.1.2.                                                ",
"                                                                3.4.5.6.7.8.9.                                                  ",
"                                                              0.a.b.c.d.e.f.g.h.                                                ",
"                                                            2 i.j.k.l.m.n.o.p.                                                  ",
"                                                          q.r.s.t.u.v.w.x.y.z.                                                  ",
"                                                          A.B.C.D.E.F.G.H.I.J.K.                                                ",
"                                                          L.M.N.O.P.Q.R.S.T.U.                                                  ",
"                                                        V.W.X.Y.Z.`. +.+++@+#+$+                                                ",
"                                                        %+&+*+=+-+;+>+,+'+)+!+                                                  ",
"                                                        ~+{+]+^+/+(+_+:+<+@+[+                                                  ",
"                                                        }+|+1+2+3+o 4+5+6+7+8+9+0+a+                                            ",
"                                                          b+c+d+e+f+g+h+i+j+k+l+m+n+o+                                          ",
"                                                          p+q+r+s+t+t+u+v+w+x+y+z+A+B+C+                                        ",
"                                                          D+E+F+G+H+I+J+K+L+x+M+N+O+P+Q+                                        ",
"                                                            R+S+T+U+V+W+X+Y+Z+`+ @.@+@@@                                        ",
"                                                            #@$@%@&@*@=@-@;@>@,@'@)@!@~@                                        ",
"                                                              {@]@^@;+/@(@_@:@<@[@}@|@1@                                        ",
"                                                              2@3@4@5@6@7@Q.8@9@0@1@a@                                          ",
"                                                              <@b@c@d@e@f@g@h@i@j@k@                                            ",
"                                                                l@m@n@o@p@q@r@  s@                                              ",
"                                                                t@u@v@w@x@y@z@                                                  ",
"                                                                A@B@C@;+D@E@F@                                                  ",
"                                                                  G@H@I@J@K@L@                                                  ",
"                                                                  M@N@O@P@Q@R@                                                  ",
"                                                                    S@T@I@U@:@                                                  ",
"                                                                    V@W@X@Y@Z@`@                                                ",
"                                                                       #.#+#Z@@#                                                ",
"                                                                      ##$#%#&#*#                                                ",
"                                                                        =#-#;#>#                                                ",
"                                                                        ,#'#)#!#                                                ",
"                                                                        ~#{#]#^#                                                ",
"                                                                        /#(#Q _#                                                ",
"                                                                        :#<#[#}#                                                ",
"                                                                        |#a 1#2#                                                ",
"                                                            3#4#_#      5#6#7#                                                  ",
"                                                        8#9#            {#0#u                                                   ",
"                                                      a#b#c#            d#e#f#                                                  ",
"                                                      g#L@              h#i#                                                    ",
"                                                      j#k#l#          m#n#g                                                     ",
"                                                      o#p#q#r#      s#t#u#i#                                                    ",
"                                                      v#w#x#y#z#A#B#C#D#                                                        ",
"                                                          E#F#G#H#I#@.J#                                                        ",
"                                                            K#L#M#                                                              ",
"                                                                                                                                ",
"                                                                                                                                ",
"                                                                                                                                ",
"                                                                                                                                ",
"                                                                                                                                "};
