/* XPM */
static char * coll_crab_xpm[] = {
"64 64 424 2",
"  	c None",
". 	c #730100",
"+ 	c #730000",
"@ 	c #991817",
"# 	c #B32423",
"$ 	c #C42A29",
"% 	c #C52A2A",
"& 	c #C22A29",
"* 	c #AF2221",
"= 	c #850D0C",
"- 	c #8C1111",
"; 	c #B12322",
"> 	c #C12928",
", 	c #B02221",
"' 	c #921514",
") 	c #740101",
"! 	c #C82C2B",
"~ 	c #D3302F",
"{ 	c #C72C2A",
"] 	c #901413",
"^ 	c #780403",
"/ 	c #790504",
"( 	c #CC2E2C",
"_ 	c #8E1212",
": 	c #730101",
"< 	c #B22322",
"[ 	c #C62B2A",
"} 	c #931514",
"| 	c #A21C1C",
"1 	c #B42423",
"2 	c #A11C1B",
"3 	c #9C1A19",
"4 	c #CB2D2C",
"5 	c #A51E1D",
"6 	c #B62524",
"7 	c #B92625",
"8 	c #C22A28",
"9 	c #AE2121",
"0 	c #7C0606",
"a 	c #BB2726",
"b 	c #AD2220",
"c 	c #7E0808",
"d 	c #BF2928",
"e 	c #B82625",
"f 	c #C02928",
"g 	c #BD2827",
"h 	c #B52423",
"i 	c #7F0908",
"j 	c #BE2827",
"k 	c #971716",
"l 	c #CA2D2C",
"m 	c #961716",
"n 	c #BC2726",
"o 	c #7B0605",
"p 	c #7A0504",
"q 	c #C72B2A",
"r 	c #AC2120",
"s 	c #88100F",
"t 	c #A31D1C",
"u 	c #9B1918",
"v 	c #A21D1C",
"w 	c #89100F",
"x 	c #C32A29",
"y 	c #7B0505",
"z 	c #D3312F",
"A 	c #760202",
"B 	c #7A0505",
"C 	c #CD2E2D",
"D 	c #921414",
"E 	c #9A1818",
"F 	c #9C1919",
"G 	c #AD2120",
"H 	c #BD2926",
"I 	c #D12F2E",
"J 	c #A41D1D",
"K 	c #A71F1E",
"L 	c #D2302F",
"M 	c #B82824",
"N 	c #9A1C15",
"O 	c #DB3630",
"P 	c #CB2F2C",
"Q 	c #D02F2E",
"R 	c #8B1110",
"S 	c #8C1110",
"T 	c #CC302C",
"U 	c #DB3730",
"V 	c #991B15",
"W 	c #CC3329",
"X 	c #C52F2A",
"Y 	c #B62A25",
"Z 	c #CE2E2D",
"` 	c #911413",
" .	c #911414",
"..	c #B72524",
"+.	c #CF2F2D",
"@.	c #DC3730",
"#.	c #C83128",
"$.	c #E63D32",
"%.	c #AE2822",
"&.	c #C82D2C",
"*.	c #A61E1D",
"=.	c #941615",
"-.	c #C62D2B",
";.	c #AF2822",
">.	c #C62F2A",
",.	c #E53D31",
"'.	c #971A14",
").	c #EB3F33",
"!.	c #A52320",
"~.	c #CE2F2E",
"{.	c #C52B2A",
"].	c #9F1B1A",
"^.	c #CD2F2D",
"/.	c #EC4033",
"(.	c #921711",
"_.	c #A7221B",
":.	c #921E1A",
"<.	c #7C1210",
"[.	c #7C1211",
"}.	c #951F1B",
"|.	c #AF2923",
"1.	c #9C1D16",
"2.	c #B42920",
"3.	c #941F1B",
"4.	c #7D1210",
"5.	c #AF261E",
"6.	c #B3281F",
"7.	c #931E1A",
"8.	c #7C110F",
"9.	c #DC3830",
"0.	c #A7231B",
"a.	c #9B1D16",
"b.	c #EA3F33",
"c.	c #DF3931",
"d.	c #CA312B",
"e.	c #AD2822",
"f.	c #931E1B",
"g.	c #7A0F0E",
"h.	c #9D7B7B",
"i.	c #E0D9D9",
"j.	c #EBE7E7",
"k.	c #D9CFCF",
"l.	c #916767",
"m.	c #946A6A",
"n.	c #DBD2D2",
"o.	c #DFD7D7",
"p.	c #9B7676",
"q.	c #7C100E",
"r.	c #AF2823",
"s.	c #CB322B",
"t.	c #EB4033",
"u.	c #991B14",
"v.	c #8C140F",
"w.	c #EF4134",
"x.	c #ED4034",
"y.	c #E43D32",
"z.	c #DD3930",
"A.	c #D4332F",
"B.	c #C72F2B",
"C.	c #971B17",
"D.	c #9A7676",
"E.	c #FBFAFA",
"F.	c #F7F6F6",
"G.	c #E7E6E6",
"H.	c #FBFBFB",
"I.	c #F5F3F3",
"J.	c #B65956",
"K.	c #BE2D24",
"L.	c #CC3328",
"M.	c #BB2C22",
"N.	c #B5615E",
"O.	c #F9F8F8",
"P.	c #FAF9F9",
"Q.	c #977070",
"R.	c #991C18",
"S.	c #D4322F",
"T.	c #DE3930",
"U.	c #E33C31",
"V.	c #F04135",
"W.	c #87110D",
"X.	c #E03B2F",
"Y.	c #EC4034",
"Z.	c #DD3830",
"`.	c #D4332E",
" +	c #C9302B",
".+	c #BE2E27",
"++	c #9A1D18",
"@+	c #D8CDCD",
"#+	c #5F5D5D",
"$+	c #000000",
"%+	c #878484",
"&+	c #FFFFFF",
"*+	c #F8C1BF",
"=+	c #F24235",
"-+	c #F9C4C2",
";+	c #FDFDFD",
">+	c #656464",
",+	c #D2C6C6",
"'+	c #9E1F1A",
")+	c #BD2E27",
"!+	c #C8302B",
"~+	c #D5332F",
"{+	c #DC392E",
"]+	c #911711",
"^+	c #E93F32",
"/+	c #E43D31",
"(+	c #D3322E",
"_+	c #C82F2B",
":+	c #B32A24",
"<+	c #971C18",
"[+	c #7E0A06",
"}+	c #EFE5E5",
"|+	c #E7E7E7",
"1+	c #FACFCE",
"2+	c #FACECD",
"3+	c #EBEAEA",
"4+	c #E9DADA",
"5+	c #971D18",
"6+	c #E93E32",
"7+	c #8D140F",
"8+	c #860D0D",
"9+	c #850D0D",
"0+	c #9D1D17",
"a+	c #E23C31",
"b+	c #D3332E",
"c+	c #A72620",
"d+	c #8F1A17",
"e+	c #9E1E17",
"f+	c #F9C3C2",
"g+	c #FCFCFC",
"h+	c #8C8C8C",
"i+	c #B1B0B0",
"j+	c #F7AFAD",
"k+	c #F7B4B2",
"l+	c #999898",
"m+	c #F8BFBE",
"n+	c #E13B30",
"o+	c #921812",
"p+	c #921C18",
"q+	c #A62520",
"r+	c #B42A24",
"s+	c #BF2E28",
"t+	c #860E0D",
"u+	c #9B1D17",
"v+	c #D9362F",
"w+	c #C43128",
"x+	c #F14235",
"y+	c #F25B53",
"z+	c #FDECEC",
"A+	c #FCE4E3",
"B+	c #F24E44",
"C+	c #F3564E",
"D+	c #FCE6E5",
"E+	c #F3554D",
"F+	c #B72C25",
"G+	c #A72520",
"H+	c #DB372F",
"I+	c #971B15",
"J+	c #860E0E",
"K+	c #740100",
"L+	c #CC2D2C",
"M+	c #A9201F",
"N+	c #901511",
"O+	c #C92E2B",
"P+	c #C92F2B",
"Q+	c #CA332A",
"R+	c #F3564D",
"S+	c #F7ACAA",
"T+	c #F9CDCC",
"U+	c #F6A4A1",
"V+	c #F24337",
"W+	c #F2493E",
"X+	c #F6A6A4",
"Y+	c #F9CCCB",
"Z+	c #F7ABA9",
"`+	c #F2534A",
" @	c #F04134",
".@	c #BE2F27",
"+@	c #C82E2A",
"@@	c #8C130F",
"#@	c #A81F1E",
"$@	c #810A0A",
"%@	c #790404",
"&@	c #A4201D",
"*@	c #BB2D26",
"=@	c #C33028",
"-@	c #A31F1C",
";@	c #941515",
">@	c #800A09",
",@	c #A01C1B",
"'@	c #870E0D",
")@	c #BF2927",
"!@	c #820D09",
"~@	c #E83E32",
"{@	c #E13C30",
"]@	c #8F1312",
"^@	c #7A0605",
"/@	c #CF322B",
"(@	c #C82F29",
"_@	c #CF2F2E",
":@	c #B52424",
"<@	c #DB3531",
"[@	c #EE4134",
"}@	c #EE4034",
"|@	c #D83330",
"1@	c #B22422",
"2@	c #C12A28",
"3@	c #AA201F",
"4@	c #951616",
"5@	c #760302",
"6@	c #971717",
"7@	c #E43C32",
"8@	c #E83E33",
"9@	c #E93F33",
"0@	c #E93E33",
"a@	c #E13A31",
"b@	c #951615",
"c@	c #A9201E",
"d@	c #8A100F",
"e@	c #B82525",
"f@	c #C72C2B",
"g@	c #DA3630",
"h@	c #D83430",
"i@	c #BB2925",
"j@	c #B32523",
"k@	c #AB2020",
"l@	c #BA2625",
"m@	c #D5342F",
"n@	c #D6352F",
"o@	c #D7342F",
"p@	c #D6342F",
"q@	c #D6332F",
"r@	c #D5352F",
"s@	c #D4312F",
"t@	c #A41D1C",
"u@	c #BA2726",
"v@	c #AB2120",
"w@	c #B32422",
"x@	c #870F0E",
"y@	c #840C0C",
"z@	c #8D1211",
"A@	c #880F0E",
"B@	c #B92725",
"C@	c #CC312C",
"D@	c #CD302C",
"E@	c #CD312C",
"F@	c #CB312C",
"G@	c #CD302D",
"H@	c #CD312D",
"I@	c #CB302C",
"J@	c #D0302E",
"K@	c #981817",
"L@	c #840D0C",
"M@	c #D1302E",
"N@	c #BB2C26",
"O@	c #C42F29",
"P@	c #C32F29",
"Q@	c #C22F29",
"R@	c #B72925",
"S@	c #850C0C",
"T@	c #850E0D",
"U@	c #7B0606",
"V@	c #C82E2B",
"W@	c #BC2D27",
"X@	c #BC2E27",
"Y@	c #BB2D27",
"Z@	c #C92D2B",
"`@	c #8A1010",
" #	c #BC2B27",
".#	c #B22A23",
"+#	c #B12923",
"@#	c #B22A24",
"##	c #B22923",
"$#	c #C02C28",
"%#	c #A92620",
"&#	c #A82620",
"*#	c #A92621",
"=#	c #A92520",
"-#	c #BA2826",
";#	c #810909",
">#	c #AA2220",
",#	c #9F221E",
"'#	c #9D221D",
")#	c #9E221E",
"!#	c #A1231F",
"~#	c #A9211F",
"{#	c #870E0E",
"]#	c #810A09",
"^#	c #C22929",
"/#	c #9E1A1A",
"(#	c #BD2A28",
"_#	c #941E1B",
":#	c #961F1C",
"<#	c #C72D2B",
"[#	c #8E1312",
"}#	c #BF2A29",
"|#	c #8C1B19",
"1#	c #881A17",
"2#	c #901C1A",
"3#	c #C52C2B",
"4#	c #89110F",
"5#	c #AB201F",
"6#	c #8A1917",
"7#	c #7F1614",
"8#	c #901B19",
"9#	c #C92D2C",
"0#	c #800909",
"a#	c #840C0B",
"b#	c #8C1211",
"c#	c #C92C2B",
"d#	c #750303",
"e#	c #770807",
"f#	c #780B09",
"g#	c #780C0B",
"h#	c #780A09",
"i#	c #770706",
"j#	c #780B0A",
"k#	c #770907",
"l#	c #AB211F",
"m#	c #9D1A19",
"n#	c #770303",
"o#	c #BF2827",
"p#	c #7D0807",
"q#	c #770202",
"                                                                                                                                ",
"                                                                                                                                ",
"                                                                                                                                ",
"                                                                                                                                ",
"                                                                                                                                ",
"                                                                                                                                ",
"                                                                                                                                ",
"                                                                                                                                ",
"                                                                                                                                ",
"                                                                                                                                ",
"                                              . + +                         + +                                                 ",
"                                        + @ # $ % & * =                 - ; $ % > , ' +                                         ",
"                                    ) @ ! ~ ~ ~ ~ ~ { ]     ^     /     @ ( ~ ~ ~ ~ ~ $ _                                       ",
"                                  : < ~ ~ ~ ~ ~ [ } +   ) | 1     < 2     + 3 4 ~ ~ ~ ~ ~ 5 +                                   ",
"                                + 6 ~ ~ ~ ~ ~ < /     . ; ~ 7     8 ~ 9 +     0 a ~ ~ ~ ~ ~ b :                                 ",
"                              + * ~ ~ ~ ~ ~ | +     c d ~ ~ e     f ~ ~ g 0     + h ~ ~ ~ ~ ~ 2 +                               ",
"                            i j ~ ~ ~ ~ ~ |     : k 4 ~ ~ ~ ;     # ~ ~ ~ l m +   + 1 ~ ~ ~ ~ ~ n o                             ",
"                          p q ~ ~ ~ ~ ~ r + s t 8 ~ ~ ~ ~ ~ @     u ~ ~ ~ ~ ~ > v w + 7 ~ ~ ~ ~ ~ x y                           ",
"                        + e ~ ~ ~ ~ ~ ~ z ~ ~ ~ ~ ~ ~ ~ ~ 4 A     B C ~ ~ ~ ~ ~ ~ ~ ~ ~ ~ ~ ~ ~ ~ ~ h                           ",
"                        D ~ ~ ~ ~ ~ ~ ~ ~ ~ ~ ~ ~ ~ ~ ~ ~ E         F ~ ~ ~ ~ ~ ~ ~ ~ ~ ~ ~ ~ ~ ~ ~ ~ ]                         ",
"                      ) > ~ ~ ~ ~ ~ ~ ~ ~ ~ ~ ~ ~ ~ ~ ~ G +         + # ~ ~ ~ ~ ~ ~ ~ ~ ~ ~ ~ ~ ~ ~ ~ > +                       ",
"                    . H ~ ~ ~ ~ ~ ~ ~ ~ ~ ~ ~ ~ ~ ~ I J +             + K L ~ ~ ~ ~ ~ ~ ~ ~ ~ ~ ~ ~ ~ ~ M +                     ",
"                    N O P Q ~ ~ ~ ~ ~ ~ ~ ~ ~ ~ ~ > R                     S > ~ ~ ~ ~ ~ ~ ~ ~ ~ ~ ~ Q T U V                     ",
"                    W U X Y ~ ~ ~ ~ ~ ~ ~ ~ Z 6 ` +                         :  ...+.~ ~ ~ ~ ~ ~ ~ ~ Y X @.#.                    ",
"                  + $.U X %.&.~ ~ ~ ~ [ *. .+                                     . =.*.q ~ ~ ~ ~ -.;.>.@.,.+                   ",
"                  '.).U X %.!.~.~ {.].+                                                 ) 2 [ ~ ^.!.;.>.@./.(.                  ",
"                  _.).U X %.:.<.+ :                                                         + + [.}.|.X @./.1.                  ",
"                  2.).U X %.3.<.:                                                             + 4.3.;.>.@./.5.                  ",
"                  6.).U X %.7.8.+                 +                         +                 + 8.3.|.>.9./.0.                  ",
"                  a.b.c.d.e.f.g.+             h.i.j.k.l.                m.n.j.o.p.            ) q.}.r.s.c.t.u.                  ",
"                  v.w.x.y.z.A.B.C..         D.E.F.G.H.I.J.K.L.L.L.L.M.N.O.P.G.P.H.Q.        + R.X S.T.U./.V.W.                  ",
"                  : X.Y.y.Z.`. +.++++       @+F.#+$+%+&+*+=+=+=+=+=+=+-+;+>+$+>+;+,+      + '+)+!+~+T.y.Y.{++                   ",
"            +       ]+^+/+9.(+_+.+:+<+)   [+}+|+$+$+$+&+1+=+=+=+=+=+=+2+3+$+$+$+3+4++   ) 5+:+)+!+`.Z.y.6+7+      +             ",
"        8+..$ ..t 9++ 0+a+Z.b+B..+:+c+d+e+,.f+g+h+$+i+&+j+=+=+=+=+=+=+k+&+l+$+l+&+m+n+o+p+q+r+s+!+S.Z.n+1.+ = v 6 x ..t+        ",
"      t+C ~ ~ ~ ~ ~ > - u+v+A.!+.+:+q+w+x+=+y+z+&+&+&+A+B+=+=+=+=+=+=+C+A+&+&+&+D+E+=+w.F+G+:+.+ +S.H+I+S > ~ ~ ~ ~ ~ C J+      ",
"    K+[ ~ ~ L+Q ~ ~ ~ ~ M+N+O+P+.+:+Q+=+=+=+=+R+S+T+U+V+=+=+=+=+=+=+=+=+W+X+Y+Z+`+=+=+=+ @.@r+.+!++@@@#@~ ~ ~ ~ Q 4 ~ ~ [ )     ",
"    ].~ ~ f $@} Q ~ ~ ~ ~ h %@&@*@=@x+=+=+=+=+=+=+=+=+=+=+=+=+=+=+=+=+=+=+=+=+=+=+=+=+=+=+ @.+*@-@^ h ~ ~ ~ ~ Q ;@>@f ~ ~ ,@    ",
"  + f ~ 1 )     '@)@~ ~ ~ ~ [ ] !@~@=+=+=+=+=+=+=+=+=+=+=+=+=+=+=+=+=+=+=+=+=+=+=+=+=+=+=+=+{@/ ]@q ~ ~ ~ ~ d '@    . 1 ~ f +   ",
"  + L Z ^@        + ' d ~ ~ ~ ~ /@=+=+=+=+=+=+=+=+=+=+=+=+=+=+=+=+=+=+=+=+=+=+=+=+=+=+=+=+=+=+(@~ ~ ~ ~ f } +         / Z L )   ",
"  + _@*.    + )       : :@~ ~ ~ <@w.[@w.[@[@w.[@[@w.[@[@w.[@w.w.[@w.[@w.[@[@w.[@[@w.[@[@w.[@}@|@~ ~ ~ h .       + :     *._@.   ",
"    1@y ) 6 % % 2@1 3@4@5@6@! ~ ~ 7@8@9@b.b.9@8@9@9@9@9@b.8@9@9@9@9@b.9@9@9@9@0@9@9@~@9@9@9@a@~ ~ ! k A b@c@1 f % % 6 ) o 1@    ",
"    +   d@~ ~ ~ ~ ~ ~ ~ Z {.e@* f@g@U.a+a+a+a+a+a+U.a+U.a+a+a+U.U.a+a+a+a+U.a+a+a+a+a+U.a+a+h@f@* e {.Z ~ ~ ~ ~ ~ ~ ~ d@  +     ",
"        0 Q ~ ~ ~ ~ ~ ~ ~ ~ ~ ~ f i@Z.9.Z.Z.9.9.Z.Z.9.9.Z.Z.9.9.Z.Z.9.9.Z.Z.9.9.Z.Z.9.9.Z.Z.j@f ~ ~ ~ ~ ~ ~ ~ ~ ~ ~ Q 0         ",
"        k@~ ~ ~ ~ ~ ~ ~ ~ ~ a 5 l@~ m@n@m@o@m@p@q@p@p@p@p@o@p@p@p@p@q@p@p@o@m@p@q@r@n@p@p@s@~ l@t@u@~ ~ ~ ~ ~ ~ ~ ~ ~ v@        ",
"      + 4 ~ l m t w@1@2 x@y@z@c@] A@B@C@C@C@C@T D@T C@E@E@F@C@G@T C@H@C@I@T I@C@T T C@C@J@e A@` 3@z@y@x@2 w@# t@K@l ~ 4 +       ",
"      L@~ L+=           : #@M@~ ~ > ;@N@O@P@P@P@P@P@P@P@P@P@P@P@P@P@P@O@P@P@Q@P@P@P@P@O@R@D > ~ ~ M@#@+           S@4 ~ T@      ",
"      z@~ m           U@n ~ ~ ~ ~ ~ ~ V@*@W@X@*@*@*@*@W@W@*@*@*@W@W@W@W@W@W@*@*@Y@*@W@X@Z@~ ~ ~ ~ ~ ~ n U@          b@~ z@      ",
"      = C +         `@l ~ ~ ~ Z ~ ~ ~ ~  #.#+#.#.#.#+#.#@###.#:+##.###+#+#.#.#.###.#.#$#~ ~ ~ ~ Z ~ ~ ~ l R         : C t+      ",
"      + ,@        D Q ~ ~ ~ ~ t@K@$ l@1 B@%#&#&#*#&#&#&#&#&#&#&#&#&#&#&#&#*#&#&#*#&#=#-#1 l@$ @ t@~ ~ ~ ~ Q '         2 :       ",
"        :       ;#Q ~ ~ ~ ~ 1 +   + + x@2 >#,#'#'#)#)#'#)#)#'#)#)#'#'#)#)#'#)#'#'#!#~#2 {#+ )   ) 1 ~ ~ ~ ~ Q ]#      +         ",
"                ,@~ ~ ~ ^#=.+   . /#[ ~ ~ ~ (#:.f.f.f.f.f.f.f.f.f.f.f.f.f.f.f._#:#<#~ ~ ~ [ ].+   + } & ~ ~ ~ ,@                ",
"              + L+~ n [#+     ' f@~ ~ ~ ~ ~ ~ }#|#1#1#1#1#1#1#1#1#1#1#1#1#1#1#2#3#~ ~ ~ ~ ~ ~ ! }     + [#a ~ L++               ",
"              4#~ ~ y@      i Q ~ ~ x t@9+5#f Z@-.6#7#7#7#7#7#7#7#7#7#7#7#7#8#9#Z@f 5#= t & ~ ~ Q 0#      a#~ ~ b#              ",
"              A ~ c#+       3 ~ ~ r +         + + + d#e#f#g#h#i#i#f#g#j#k#d#+ + +         + l#~ ~ m#      + c#~ n#              ",
"              . j f@+       /#~ ~ ]@                                                        z@~ ~ /#      + [ o#+               ",
"                ] M@:       `@~ L .                                                         ) L ~ d@      : M@ .                ",
"                  /#)       + g ~ 1 +                                                     : 1 ~ g +       . /#                  ",
"                              y 6 L ].                                                    ,@L 6 y                               ",
"                                  n#p#                                                    p#q#                                  ",
"                                                                                                                                ",
"                                                                                                                                ",
"                                                                                                                                ",
"                                                                                                                                ",
"                                                                                                                                "};
