/* XPM */
static char * door_xpm[] = {
"64 64 211 2",
"  	c None",
". 	c #060606",
"+ 	c #130D06",
"@ 	c #201505",
"# 	c #120C06",
"$ 	c #040506",
"% 	c #030506",
"& 	c #000006",
"* 	c #4C3F06",
"= 	c #7C6805",
"- 	c #8E7804",
"; 	c #8F7804",
"> 	c #8E7704",
", 	c #8D7604",
"' 	c #8C7604",
") 	c #796605",
"! 	c #4B3E06",
"~ 	c #211605",
"{ 	c #362404",
"] 	c #372504",
"^ 	c #C2A403",
"/ 	c #DEBC02",
"( 	c #DFBD02",
"_ 	c #261905",
": 	c #402B04",
"< 	c #432D04",
"[ 	c #322105",
"} 	c #251805",
"| 	c #251804",
"1 	c #1C0D04",
"2 	c #7D6804",
"3 	c #C4A503",
"4 	c #E0BE02",
"5 	c #E8C501",
"6 	c #F8D200",
"7 	c #FFD900",
"8 	c #FFD800",
"9 	c #483003",
"0 	c #3E2904",
"a 	c #5D4904",
"b 	c #806A04",
"c 	c #B59903",
"d 	c #E9C601",
"e 	c #FFDA00",
"f 	c #4D3502",
"g 	c #533B02",
"h 	c #523D0F",
"i 	c #4D3B1D",
"j 	c #4A381D",
"k 	c #4A340F",
"l 	c #432C02",
"m 	c #322102",
"n 	c #241705",
"o 	c #140705",
"p 	c #7A6605",
"q 	c #C3A503",
"r 	c #604903",
"s 	c #604D1D",
"t 	c #534832",
"u 	c #4B4132",
"v 	c #462F03",
"w 	c #3E2702",
"x 	c #392304",
"y 	c #2C1804",
"z 	c #0E0205",
"A 	c #463A06",
"B 	c #8A7404",
"C 	c #B49803",
"D 	c #E8C401",
"E 	c #523D0E",
"F 	c #604C1D",
"G 	c #62532C",
"H 	c #5C5139",
"I 	c #554B39",
"J 	c #4E402C",
"K 	c #4A3922",
"L 	c #4C3918",
"M 	c #4F3800",
"N 	c #4F3600",
"O 	c #4C3300",
"P 	c #241805",
"Q 	c #140604",
"R 	c #120C05",
"S 	c #EAC601",
"T 	c #8D7704",
"U 	c #665535",
"V 	c #645335",
"W 	c #554B38",
"X 	c #4A453B",
"Y 	c #4B453B",
"Z 	c #5F4904",
"` 	c #483103",
" .	c #422D04",
"..	c #3B2504",
"+.	c #261803",
"@.	c #4B463A",
"#.	c #58503E",
"$.	c #6B5733",
"%.	c #6E5830",
"&.	c #61533A",
"*.	c #574E3D",
"=.	c #584F3F",
"-.	c #736B5B",
";.	c #958C7C",
">.	c #948979",
",.	c #6C5E4B",
"'.	c #4A3203",
").	c #482F00",
"!.	c #523B02",
"~.	c #533D0F",
"{.	c #42331D",
"].	c #322410",
"^.	c #251803",
"/.	c #7F6A04",
"(.	c #4B463B",
"_.	c #58503F",
":.	c #725A2C",
"<.	c #6E5930",
"[.	c #69542C",
"}.	c #999081",
"|.	c #CECAC3",
"1.	c #CBC7C2",
"2.	c #8C847B",
"3.	c #462B00",
"4.	c #5F4804",
"5.	c #484032",
"6.	c #43331D",
"7.	c #3B2502",
"8.	c #372104",
"9.	c #594604",
"0.	c #745B2A",
"a.	c #71571E",
"b.	c #A99F91",
"c.	c #E5E3DE",
"d.	c #E2E0DD",
"e.	c #99938D",
"f.	c #4A3202",
"g.	c #452900",
"h.	c #5F4C1D",
"i.	c #483100",
"j.	c #352300",
"k.	c #110C06",
"l.	c #755B29",
"m.	c #72571E",
"n.	c #AAA092",
"o.	c #E6E4DF",
"p.	c #E2E1DF",
"q.	c #9A948E",
"r.	c #5D4604",
"s.	c #483302",
"t.	c #311E04",
"u.	c #1B1005",
"v.	c #4A3201",
"w.	c #4B453A",
"x.	c #221300",
"y.	c #1D0700",
"z.	c #190000",
"A.	c #E3E1DF",
"B.	c #180000",
"C.	c #725822",
"D.	c #745A27",
"E.	c #746C5D",
"F.	c #9D917F",
"G.	c #847153",
"H.	c #6E530A",
"I.	c #71561A",
"J.	c #A99E90",
"K.	c #E6E3DF",
"L.	c #978E7E",
"M.	c #CFCBC3",
"N.	c #9E9180",
"O.	c #948A7A",
"P.	c #D5D2CD",
"Q.	c #BBB4AB",
"R.	c #BDB5AB",
"S.	c #D7D4CD",
"T.	c #8B837A",
"U.	c #1C0700",
"V.	c #6B5C48",
"W.	c #B1ADA7",
"X.	c #D5D2CE",
"Y.	c #B8B2A6",
"Z.	c #6A5B47",
"`.	c #888178",
" +	c #C8C5C2",
".+	c #472D00",
"++	c #645647",
"@+	c #89827A",
"#+	c #4B3100",
"$+	c #261906",
"%+	c #493F30",
"&+	c #46320F",
"*+	c #452800",
"=+	c #958B7A",
"-+	c #3B2300",
";+	c #857F79",
">+	c #C7C5C2",
",+	c #462C00",
"'+	c #898179",
")+	c #C8C6C2",
"!+	c #1E0B00",
"~+	c #554E47",
"{+	c #86807A",
"]+	c #372404",
"^+	c #4B3303",
"/+	c #0B0300",
"(+	c #150000",
"_+	c #221400",
":+	c #291000",
"<+	c #3C2200",
"[+	c #493000",
"                                                                                                                                ",
"                                                                                                                                ",
"                                                                                                                                ",
"                                                                                                                                ",
"                                . . . . . . . . . . . . . . . . . . . . . . . . . . . . . . . .                                 ",
"                                . + @ @ # $ % & $ * = - ; - - - - > , ' ' ' ' ' ' ' ' , ' ) ! .                                 ",
"                                . ~ { ] ~ . $ & . ) ^ / ( / / / / / / / / / / / / / / ( / ^ ) .                                 ",
"                                . _ : < [ } | 1 _ 2 3 ( 4 ( ( ( ( 5 6 7 7 7 7 7 8 8 8 7 8 / ' .                                 ",
"                                . _ : 9 < : : 0 : a b - ; - - , - c d 7 e 7 7 7 7 7 7 e 7 ( , .                                 ",
"                                . _ : f g h i j k l m | n } _ o # p q ( 4 ( ( 5 6 7 7 e 8 / ' .                                 ",
"                                . } : g r s t u j v w x x x x y z A ) ' , B ' C D 8 7 7 8 / ' .                                 ",
"                                . } : E F G H I J K K L M N O < [ _ P } | Q R p q ( 4 S 6 ( T .                                 ",
"                                . | : i t H U V W X Y t F Z g `  .0 ..x x y z A ) B , c D / > .                                 ",
"                                . +.: K @.#.$.%.&.*.=.-.;.>.,.'.).f !.~.i {.].+.^.1 } /.3 ^ = .                                 ",
"                                . +.: K (._.$.:.<.[.$.}.|.1.2.'.3.g 4.s t 5.6.0 7.8.x 9.2 ) * .                                 ",
"                                . +.: K @.#.$.0.0.a.0.b.c.d.e.f.g.E h.G H I J K K L M i.j.@ k..                                 ",
"                                . +.: K @.#.$.0.l.m.0.n.o.p.q.f.g.i t H U V W (.Y t F r.s.t.u..                                 ",
"                                . +.: K @.#.$.0.0.a.0.b.c.d.e.v.g.K w.#.$.%.&.*.=.-.;.>.,.: x..                                 ",
"                                . +.: K @.#.$.0.0.a.0.b.c.d.e.v.g.K X _.$.:.<.[.$.}.|.1.2.: y..                                 ",
"                                . +.: K @.#.$.0.0.a.0.b.c.d.e.v.g.K w.#.$.0.0.a.0.b.c.d.e.: z..                                 ",
"                                . +.: K @.#.$.0.0.a.0.b.c.d.e.v.g.K w.#.$.0.l.m.0.n.o.A.q.: B..                                 ",
"                                . +.: K @.#.$.0.0.a.0.b.c.d.e.v.g.K w.#.$.0.0.a.0.b.c.d.e.: z..                                 ",
"                                . +.: K @.#.$.0.0.a.0.b.c.d.e.v.g.K w.#.$.0.0.a.0.b.c.d.e.: z..                                 ",
"                                . +.: K @.#.$.0.0.a.0.b.c.d.e.v.g.K w.#.$.0.0.a.0.b.c.d.e.: z..                                 ",
"                                . +.: K @.#.$.0.0.a.0.b.c.d.e.v.g.K w.#.$.0.0.a.0.b.c.d.e.: z..                                 ",
"                                . +.: K (.*.[.C.D.a.0.b.c.d.e.v.g.K X *.[.C.D.a.0.b.c.d.e.: z..                                 ",
"                                . +.: K @.#.$.0.0.a.0.b.c.d.e.v.g.K w.#.$.0.0.a.0.b.c.d.e.: z..                                 ",
"                                . | : L t E.}.F.G.H.I.J.K.p.q.f.g.L t E.}.F.G.H.I.J.K.A.q.: B..                                 ",
"                                . } : M F L.|.M.N.a.C.b.c.d.e.f.g.M h.L.|.M.N.a.C.b.c.d.e.: z..                                 ",
"                                . } : N 4.O.1.P.Q.J.J.R.S.1.T.'.3.N 4.O.1.P.Q.J.J.R.S.1.T.: U..                                 ",
"                                . _ : O g V.2.W.X.K.K.S.Y.>.Z.'.).O !.V.2.W.X.K.K.S.Y.>.Z.: x..                                 ",
"                                . _ : '.'.3.f.`. +p.A.1.>.4.N '.'.'.'.3.f.`. +p.A.1.>.4.N : } .                                 ",
"                                . _ : '.'..+3.++@+q.q.T.Z.N #+'.'.'.'..+3.++@+q.q.T.Z.N #+: $+.                                 ",
"                                . _ : f g h i j k v.v.f.f.'.'.'.'.f !.h i j k v.v.f.f.'.'.: _ .                                 ",
"                                . } : !.4.h.t %+&+g.*+3.).'.'.'.'.!.4.h.t %+&+g.*+3.).'.'.: _ .                                 ",
"                                . } : E F G H I J K K L M N O f.'.E h.G H I J K K L M N O : $+.                                 ",
"                                . | : i t H U V W X X t h.4.!.f.'.i t H U V W X X t h.4.!.: } .                                 ",
"                                . +.: K @.#.$.%.&.*.=.-.;.>.,.v.).K w.#.$.%.&.*.=.-.;.>.,.: x..                                 ",
"                                . +.: K (._.$.:.<.[.$.}.|.1.2.v.3.K X _.$.:.<.[.$.}.|.1.2.: U..                                 ",
"                                . +.: K @.#.$.0.0.a.0.b.c.d.e.v.g.K w.#.$.0.0.a.0.b.c.d.e.: z..                                 ",
"                                . +.: K @.#.$.0.l.m.0.n.o.p.q.v.g.K w.#.$.0.l.m.0.n.o.A.q.: B..                                 ",
"                                . +.: K @.#.$.0.0.a.0.b.c.d.e.v.g.K w.#.$.0.0.a.0.b.c.d.e.: z..                                 ",
"                                . +.: K @.#.$.0.0.a.0.b.c.d.e.v.g.K w.#.$.0.0.a.0.b.c.d.e.: z..                                 ",
"                                . +.: K @.#.$.0.0.a.0.b.c.d.e.v.g.K w.#.$.0.0.a.0.b.c.d.e.: z..                                 ",
"                                . +.: K @.#.$.0.0.a.0.b.c.d.e.v.g.K w.#.$.0.0.a.0.b.c.d.e.: z..                                 ",
"                                . +.: K @.#.$.0.0.a.0.b.c.d.e.v.g.K w.#.$.0.0.a.0.b.c.d.e.: z..                                 ",
"                                . +.: K @.#.$.0.0.a.0.b.c.d.e.v.g.K w.#.$.0.0.a.0.b.c.d.e.: z..                                 ",
"                                . +.: K @.#.$.0.0.a.0.b.c.d.e.v.g.K w.#.$.0.0.a.0.b.c.d.e.: z..                                 ",
"                                . +.: K @.#.$.0.0.a.0.b.c.d.e.v.g.K w.#.$.0.0.a.0.b.c.d.e.: z..                                 ",
"                                . +.: K @.#.$.0.0.a.0.b.c.d.e.v.g.K w.#.$.0.0.a.0.b.c.d.e.: z..                                 ",
"                                . +.: K @.#.$.0.0.a.0.b.c.d.e.v.g.K w.#.$.0.0.a.0.b.c.d.e.: z..                                 ",
"                                . +.: K (.*.[.C.D.a.0.b.c.d.e.v.g.K X *.[.C.D.a.0.b.c.d.e.: z..                                 ",
"                                . +.: K @.#.$.0.0.a.0.b.c.d.e.v.g.K w.#.$.0.0.a.0.b.c.d.e.: z..                                 ",
"                                . | : L t E.}.F.G.H.I.J.K.p.q.f.g.L t E.}.F.G.H.I.J.K.A.q.: B..                                 ",
"                                . } : M F L.|.M.N.a.C.b.c.d.e.f.g.M h.L.|.M.N.a.C.b.c.d.e.: z..                                 ",
"                                . } : N r =+1.P.Q.J.J.R.S.1.T.'.3.N 4.O.1.P.Q.J.J.R.S.1.T.: U..                                 ",
"                                . _ : O g V.2.W.X.K.K.S.Y.>.Z.'.).O !.V.2.W.X.K.K.S.Y.>.Z.: x..                                 ",
"                                . @ { : : -+: ;+>+A.A.1.>.4.N '.'.'.'.,+'.'+)+A.A.1.>.4.N : } .                                 ",
"                                . + @ $+} !+U.~+{+q.q.T.Z.N #+'.'.'.'..+3.++@+q.q.T.Z.N #+: $+.                                 ",
"                                . . . . . $ . @ ]+: : : : : : : : : : : : : : < 9 '.'.^+'.: _ .                                 ",
"                                            % /+(+B.z.U.x.} $+_ _ _ _ $+_ _+y.:+<+3.[+'.'.: _ .                                 ",
"                                            . . . . . . . . . . . . . . . $ . @ ] : : : : ] @ .                                 ",
"                                                                            % # @ _ _ _ _ @ + .                                 ",
"                                                                            . . . . . . . . . .                                 "};
